<?xml version="1.0" encoding="utf-8"?>
<!-- Generator: Adobe Illustrator 16.0.0, SVG Export Plug-In . SVG Version: 6.00 Build 0)  -->
<!DOCTYPE svg PUBLIC "-//W3C//DTD SVG 1.1//EN" "http://www.w3.org/Graphics/SVG/1.1/DTD/svg11.dtd">
<svg version="1.1" id="图层_1" xmlns="http://www.w3.org/2000/svg" xmlns:xlink="http://www.w3.org/1999/xlink" x="0px" y="0px"
	 width="30px" height="30px" viewBox="0 0 30 30" enable-background="new 0 0 30 30" xml:space="preserve">
<path fill-rule="evenodd" clip-rule="evenodd" fill="#FFF76C" d="M20.005,16.5h-0.982c0,0-0.271,1.568-2.004,1.104
	c-0.501,0.805-0.519,0.83-0.519,0.83c0,0.001,1.356,0.913,0,2.153l0.526,0.834c0,0,1.497-0.623,1.988,1.078h0.994
	c0,0,0.312-1.563,1.996-1.102c0.479-0.788,0.487-0.796,0.487-0.796s-1.271-1.056,0.008-2.19c-0.491-0.789-0.483-0.804-0.483-0.804
	S20.32,18.066,20.005,16.5z M19.5,20.5c-0.553,0-1-0.447-1-1s0.447-1,1-1s1,0.447,1,1S20.053,20.5,19.5,20.5z"/>
<path fill-rule="evenodd" clip-rule="evenodd" fill="#FFFFFF" d="M19.55,15.5c-2.209,0-4,1.791-4,4c0,1.201,0.541,2.267,1.379,3
	H9.55c-0.798,0-1-0.227-1-1v-10c0,0-0.017-1,1-1h3c0-0.832,0.594-2,2-2s2,1.231,2,2h3c0,0,1-0.118,1,1v4.142
	C20.229,15.558,19.897,15.5,19.55,15.5z M12.05,17.5c0.537,0,1.367,0,2,0c0.275,0,0.5-0.224,0.5-0.5c0-0.275-0.225-0.5-0.5-0.5
	c-0.753,0-1.285,0-2,0c-0.276,0-0.5,0.225-0.5,0.5C11.55,17.276,11.773,17.5,12.05,17.5z M12.05,15.5c0.537,0,3.367,0,4,0
	c0.275,0,0.5-0.224,0.5-0.5s-0.225-0.5-0.5-0.5c-0.753,0-3.285,0-4,0c-0.276,0-0.5,0.224-0.5,0.5S11.773,15.5,12.05,15.5z
	 M10.05,12.5c-0.276,0-0.5,0.224-0.5,0.5s0.224,0.5,0.5,0.5c0.275,0,0.5-0.224,0.5-0.5S10.325,12.5,10.05,12.5z M10.05,14.5
	c-0.276,0-0.5,0.224-0.5,0.5s0.224,0.5,0.5,0.5c0.275,0,0.5-0.224,0.5-0.5S10.325,14.5,10.05,14.5z M10.05,16.5
	c-0.276,0-0.5,0.225-0.5,0.5c0,0.276,0.224,0.5,0.5,0.5c0.275,0,0.5-0.224,0.5-0.5C10.55,16.725,10.325,16.5,10.05,16.5z M14.55,9.5
	c-0.553,0-1,0.448-1,1s0.447,1,1,1s1-0.448,1-1S15.103,9.5,14.55,9.5z M19.05,12.5c-0.753,0-6.285,0-7,0c-0.276,0-0.5,0.224-0.5,0.5
	s0.224,0.5,0.5,0.5c0.537,0,6.367,0,7,0c0.275,0,0.5-0.224,0.5-0.5S19.325,12.5,19.05,12.5z"/>
</svg>
