<?xml version="1.0" encoding="utf-8"?>
<!-- Generator: Adobe Illustrator 16.0.0, SVG Export Plug-In . SVG Version: 6.00 Build 0)  -->
<!DOCTYPE svg PUBLIC "-//W3C//DTD SVG 1.1//EN" "http://www.w3.org/Graphics/SVG/1.1/DTD/svg11.dtd">
<svg version="1.1" id="图层_1" xmlns="http://www.w3.org/2000/svg" xmlns:xlink="http://www.w3.org/1999/xlink" x="0px" y="0px"
	 width="30px" height="30px" viewBox="0 0 30 30" enable-background="new 0 0 30 30" xml:space="preserve">
<path fill="#FFF76C" d="M20.58,20.138l1-2c0-0.553-0.268-1-1-1h-3c-0.857,0-1,0.541-1,1l1,2l-1,2c0,0.605,0.33,1,1,1
	c0,0,2.344,0,3,0s1-0.324,1-1L20.58,20.138z M18.58,20.138l-1-2h3l-1,2H18.58z"/>
<path fill-rule="evenodd" clip-rule="evenodd" fill="#FFFFFF" d="M16.592,16.179c-0.736,0-1,0.276-1,1l1,3l-0.531,1l-7.496-0.003
	c-0.334-0.004-0.641-0.192-0.807-0.495c-0.166-0.304-0.166-0.677,0-0.98l5.521-10.026c0.164-0.306,0.473-0.495,0.809-0.495
	c0.334,0,0.643,0.189,0.807,0.495l3.58,6.505H16.592z M14.092,19.179c0.275,0,0.5-0.224,0.5-0.5c0-0.275-0.224-0.5-0.5-0.5
	c-0.275,0-0.5,0.224-0.5,0.5C13.592,18.954,13.815,19.179,14.092,19.179z M14.592,13.753c-0.002-0.316-0.225-0.572-0.5-0.574
	c-0.275,0.001-0.498,0.258-0.5,0.574v2.33c0.002,0.316,0.225,0.572,0.5,0.574c0.275-0.002,0.498-0.258,0.5-0.574V13.753z"/>
</svg>
