<?xml version="1.0" encoding="utf-8"?>
<!-- Generator: Adobe Illustrator 16.0.0, SVG Export Plug-In . SVG Version: 6.00 Build 0)  -->
<!DOCTYPE svg PUBLIC "-//W3C//DTD SVG 1.1//EN" "http://www.w3.org/Graphics/SVG/1.1/DTD/svg11.dtd">
<svg version="1.1" id="图层_1" xmlns="http://www.w3.org/2000/svg" xmlns:xlink="http://www.w3.org/1999/xlink" x="0px" y="0px"
	 width="30px" height="30px" viewBox="0 0 30 30" enable-background="new 0 0 30 30" xml:space="preserve">
<path fill-rule="evenodd" clip-rule="evenodd" fill="#FFFFFF" d="M19.5,15.5c-2.209,0-4,1.791-4,4c0,1.201,0.541,2.267,1.379,3H9.5
	c-0.552,0-1-0.447-1-1v-12c0-0.552,0.448-1,1-1h12c0.553,0,1,0.448,1,1v7.379C21.767,16.041,20.701,15.5,19.5,15.5z M10,21.5
	c0.983,0,3.212,0,4,0c0.276,0,0.5-0.224,0.5-0.5s-0.224-0.5-0.5-0.5c-0.788,0-3.11,0-4,0c-0.276,0-0.5,0.224-0.5,0.5
	S9.724,21.5,10,21.5z M10,19.5c0.983,0,3.212,0,4,0c0.276,0,0.5-0.224,0.5-0.5s-0.224-0.5-0.5-0.5c-0.788,0-3.11,0-4,0
	c-0.276,0-0.5,0.224-0.5,0.5S9.724,19.5,10,19.5z M16.364,14.465l-2.233-3.93c0,0-0.444-1.051-1.225-1.051
	c-0.656,0-1.067,0.992-1.067,0.992l-2.204,3.99h0c-0.135,0.213-0.135,0.476,0,0.689c0.133,0.214,0.381,0.346,0.649,0.345h5.432
	c0.271,0,0.515-0.129,0.649-0.345C16.5,14.941,16.5,14.677,16.364,14.465z M21,10.5c-0.787,0-2.11,0-3,0c-0.276,0-0.5,0.224-0.5,0.5
	s0.224,0.5,0.5,0.5c0.983,0,2.213,0,3,0c0.275,0,0.5-0.224,0.5-0.5S21.275,10.5,21,10.5z M21,12.5c-0.787,0-2.11,0-3,0
	c-0.276,0-0.5,0.224-0.5,0.5s0.224,0.5,0.5,0.5c0.983,0,2.213,0,3,0c0.275,0,0.5-0.224,0.5-0.5S21.275,12.5,21,12.5z M13.315,13.546
	l-0.627-0.002c-0.046,0-0.093-0.01-0.128-0.03c-0.036-0.019-0.053-0.044-0.053-0.071l-0.005-1.841c0-0.028,0.021-0.054,0.054-0.071
	c0.036-0.02,0.082-0.031,0.128-0.03h0.632c0.047-0.001,0.093,0.01,0.129,0.03c0.033,0.017,0.053,0.043,0.053,0.071l0.001,1.842
	c0,0.028-0.021,0.055-0.054,0.072C13.409,13.537,13.362,13.547,13.315,13.546z M12.684,13.943h0.632
	c0.051,0,0.098,0.017,0.129,0.045c0.036,0.03,0.055,0.068,0.054,0.107v0.253c0.001,0.039-0.018,0.077-0.054,0.107
	c-0.036,0.029-0.083,0.044-0.129,0.044h-0.632c-0.046,0-0.093-0.015-0.128-0.044c-0.037-0.03-0.055-0.068-0.055-0.107v-0.253
	c-0.001-0.039,0.019-0.077,0.055-0.107C12.585,13.96,12.633,13.944,12.684,13.943z"/>
<path fill-rule="evenodd" clip-rule="evenodd" fill="#FFF76C" d="M20.005,16.5h-0.982c0,0-0.271,1.568-2.004,1.104
	c-0.501,0.805-0.519,0.83-0.519,0.83c0,0.001,1.356,0.913,0,2.153l0.526,0.834c0,0,1.497-0.623,1.988,1.078h0.994
	c0,0,0.312-1.563,1.996-1.102c0.479-0.788,0.487-0.796,0.487-0.796s-1.271-1.056,0.008-2.19c-0.491-0.789-0.483-0.804-0.483-0.804
	S20.32,18.066,20.005,16.5z M19.5,20.5c-0.553,0-1-0.447-1-1s0.447-1,1-1s1,0.447,1,1S20.053,20.5,19.5,20.5z"/>
</svg>
